<svg width="135" height="32" viewBox="0 0 135 32" fill="none" xmlns="http://www.w3.org/2000/svg">
<g clip-path="url(#clip0_7824_3855)">
<path d="M50.6389 7.73764V24.7029H47.241L39.616 13.5464V24.6824H36.2686V7.73764H39.6665L47.2916 18.8737V7.73764H50.6389Z" fill="white"/>
<path d="M57.3842 10.934V14.745H62.2586V17.9414H57.3842V24.7029H54.0369V7.73764H63.2294V10.934H57.3842Z" fill="white"/>
<path d="M76.6794 10.934H72.3613V24.7029H69.0139V10.934H64.6856V7.73764H76.6794V10.934Z" fill="white"/>
<path d="M76.8513 16.4149H83.9303V19.4883H76.8513V16.4149Z" fill="white"/>
<path d="M98.7152 20.103C98.7243 20.7236 98.6076 21.3395 98.3724 21.9126C98.1372 22.4857 97.7884 23.0038 97.3477 23.435C96.9069 23.8661 96.3836 24.201 95.81 24.4191C95.2364 24.6372 94.6247 24.7338 94.0128 24.7029H87.045V7.73765H93.4263C94.0013 7.71271 94.5755 7.80613 95.1139 8.01234C95.6523 8.21854 96.1439 8.53322 96.5589 8.93733C96.9738 9.34143 97.3035 9.82661 97.5282 10.3635C97.7528 10.9004 97.8677 11.4778 97.8658 12.0609C97.8829 12.7796 97.7157 13.4906 97.3808 14.1244C97.0458 14.7582 96.5544 15.2933 95.9545 15.6773C96.8042 16.0432 97.5238 16.6627 98.017 17.4534C98.5103 18.2442 98.7538 19.1685 98.7152 20.103ZM90.2913 10.7906V14.5709H92.5566C92.7973 14.5709 93.0357 14.5225 93.2579 14.4286C93.48 14.3346 93.6816 14.197 93.8509 14.0236C94.0202 13.8501 94.1538 13.6444 94.2441 13.4183C94.3344 13.1922 94.3795 12.9502 94.3768 12.7063C94.3837 12.4613 94.3415 12.2174 94.2527 11.9894C94.1639 11.7614 94.0304 11.554 93.8603 11.3797C93.6902 11.2054 93.4869 11.0679 93.2628 10.9755C93.0387 10.883 92.7985 10.8375 92.5566 10.8418L90.2913 10.7906ZM95.2667 19.5191C95.2766 19.2388 95.2296 18.9594 95.1285 18.6983C95.0274 18.4372 94.8744 18.1999 94.6791 18.0011C94.4838 17.8023 94.2503 17.6462 93.993 17.5426C93.7357 17.4389 93.4603 17.3898 93.1836 17.3984H90.2913V21.6602H93.1836C93.4621 21.669 93.7394 21.6194 93.9981 21.5145C94.2567 21.4095 94.4912 21.2516 94.6868 21.0505C94.8824 20.8495 95.0348 20.6097 95.1346 20.3462C95.2344 20.0826 95.2794 19.8011 95.2667 19.5191Z" fill="white"/>
<path d="M105.976 21.7422V24.6619H100.728V6.99998H103.883V21.7422H105.976Z" fill="white"/>
<path d="M107.038 18.4332C107.004 17.093 107.365 15.773 108.075 14.6418C108.785 13.5106 109.812 12.6195 111.024 12.0825C112.237 11.5455 113.58 11.3868 114.882 11.627C116.184 11.8671 117.385 12.495 118.333 13.4304C119.281 14.3659 119.932 15.5663 120.203 16.8785C120.474 18.1907 120.353 19.5549 119.855 20.7968C119.357 22.0388 118.504 23.102 117.406 23.8507C116.309 24.5994 115.016 24.9996 113.692 25C112.825 25.0305 111.96 24.8828 111.151 24.5657C110.341 24.2487 109.603 23.769 108.982 23.1554C108.36 22.5418 107.867 21.8072 107.533 20.9956C107.199 20.184 107.031 19.3124 107.038 18.4332ZM117.09 18.4332C117.084 17.7537 116.88 17.0912 116.503 16.5292C116.126 15.9671 115.593 15.5308 114.972 15.2749C114.35 15.0191 113.668 14.9553 113.011 15.0916C112.354 15.2278 111.751 15.5581 111.279 16.0407C110.807 16.5233 110.486 17.1367 110.358 17.8036C110.229 18.4704 110.298 19.161 110.556 19.7882C110.814 20.4154 111.25 20.9512 111.808 21.3281C112.366 21.705 113.022 21.906 113.692 21.9061C114.144 21.916 114.593 21.8328 115.011 21.6614C115.43 21.49 115.81 21.234 116.128 20.9091C116.446 20.5841 116.695 20.1971 116.86 19.7714C117.026 19.3457 117.104 18.8904 117.09 18.4332Z" fill="white"/>
<path d="M121.843 18.4332C121.905 16.8058 122.544 15.2556 123.644 14.0676C124.743 12.8795 126.229 12.1335 127.828 11.9665C129.428 11.7995 131.032 12.2228 132.348 13.1587C133.664 14.0945 134.602 15.4799 134.99 17.0603H131.643C131.33 16.327 130.777 15.7253 130.077 15.3568C129.377 14.9883 128.573 14.8754 127.801 15.0373C127.029 15.1991 126.335 15.6258 125.837 16.2453C125.339 16.8648 125.067 17.6393 125.067 18.4383C125.067 19.2372 125.339 20.0117 125.837 20.6312C126.335 21.2507 127.029 21.6774 127.801 21.8392C128.573 22.0011 129.377 21.8882 130.077 21.5197C130.777 21.1512 131.33 20.5495 131.643 19.8162H134.99C134.601 21.3971 133.663 22.7828 132.346 23.7183C131.029 24.6539 129.423 25.0764 127.824 24.9081C126.224 24.7399 124.738 23.9921 123.639 22.8025C122.541 21.6128 121.903 20.0613 121.843 18.4332Z" fill="white"/>
</g>
<g clip-path="url(#clip1_7824_3855)">
<path d="M13.9595 3.99869V8.00087L17.4511 6.00152V1.99935L13.9595 3.99869Z" fill="#2129DB"/>
<path d="M13.9595 3.99869L17.4511 1.99935L13.9595 0L10.4714 1.99935L13.9595 3.99869Z" fill="#00FFBB"/>
<path d="M10.4714 6.00152V1.99935L13.9595 3.99869V8.00087L10.4714 6.00152Z" fill="#0A1393"/>
<path d="M10.4714 6.00152V10.0002L13.9595 8.00087V3.99869L10.4714 6.00152Z" fill="#2129DB"/>
<path d="M10.4714 6.00152L13.9595 3.99869L10.4714 1.99935L6.97975 3.99869L10.4714 6.00152Z" fill="#00FFBB"/>
<path d="M6.97975 8.00087V3.99869L10.4714 6.00152V10.0002L6.97975 8.00087Z" fill="#0A1393"/>
<path d="M17.4511 6.00152V10.0002L20.9393 8.00087V3.99869L17.4511 6.00152Z" fill="#2129DB"/>
<path d="M17.4511 6.00152L20.9393 3.99869L17.4511 1.99935L13.9595 3.99869L17.4511 6.00152Z" fill="#2F37FF"/>
<path d="M13.9595 8.00087V3.99869L17.4511 6.00152V10.0002L13.9595 8.00087Z" fill="#0A1393"/>
<path d="M3.49163 21.9998V26.002L6.97975 24.0026V20.0004L3.49163 21.9998Z" fill="#006B7A"/>
<path d="M3.49163 21.9998L6.97975 20.0004L3.49163 18.0011L0 20.0004L3.49163 21.9998Z" fill="#2F37FF"/>
<path d="M0 24.0026V20.0004L3.49163 21.9998V26.002L0 24.0026Z" fill="#00A57E"/>
<path d="M3.49163 18.0011V21.9998L6.97975 20.0004V16.0017L3.49163 18.0011Z" fill="#006B7A"/>
<path d="M3.49163 18.0011L6.97975 16.0017L3.49163 14.0024L0 16.0017L3.49163 18.0011Z" fill="#2F37FF"/>
<path d="M0 20.0004V16.0017L3.49163 18.0011V21.9998L0 20.0004Z" fill="#00A57E"/>
<path d="M3.49163 14.0024V18.0011L6.97975 16.0017V11.9996L3.49163 14.0024Z" fill="#2129DB"/>
<path d="M3.49163 14.0024L6.97975 11.9996L3.49163 10.0002L0 11.9996L3.49163 14.0024Z" fill="#2F37FF"/>
<path d="M0 16.0017V11.9996L3.49163 14.0024V18.0011L0 16.0017Z" fill="#00A57E"/>
<path d="M17.4511 26.002V30.0007L20.9393 28.0013V24.0026L17.4511 26.002Z" fill="#2129DB"/>
<path d="M17.4511 26.002L20.9393 24.0026L17.4511 21.9998L13.9595 24.0026L17.4511 26.002Z" fill="#2F37FF"/>
<path d="M13.9595 28.0013V24.0026L17.4511 26.002V30.0007L13.9595 28.0013Z" fill="#0A1393"/>
<path d="M13.9595 24.0026V28.0013L17.4511 26.002V21.9998L13.9595 24.0026Z" fill="#2129DB"/>
<path d="M13.9595 24.0026L17.4511 21.9998L13.9595 20.0004L10.4714 21.9998L13.9595 24.0026Z" fill="#2F37FF"/>
<path d="M10.4714 26.002V21.9998L13.9595 24.0026V28.0013L10.4714 26.002Z" fill="#0A1393"/>
<path d="M17.4511 14.0024V18.0011L20.9393 16.0017V11.9996L17.4511 14.0024Z" fill="#2129DB"/>
<path d="M17.4511 14.0024L20.9393 11.9996L17.4511 10.0002L13.9595 11.9996L17.4511 14.0024Z" fill="#2F37FF"/>
<path d="M13.9595 16.0017V11.9996L17.4511 14.0024V18.0011L13.9595 16.0017Z" fill="#0A1393"/>
<path d="M6.97975 16.0017V20.0004L10.4714 18.0011V14.0024L6.97975 16.0017Z" fill="#2129DB"/>
<path d="M6.97975 16.0017L10.4714 14.0024L6.97975 11.9996L3.49163 14.0024L6.97975 16.0017Z" fill="#2F37FF"/>
<path d="M3.49163 18.0011V14.0024L6.97975 16.0017V20.0004L3.49163 18.0011Z" fill="#00A57E"/>
<path d="M10.4714 26.002V30.0007L13.9595 28.0013V24.0026L10.4714 26.002Z" fill="#2129DB"/>
<path d="M10.4714 26.002L13.9595 24.0026L10.4714 21.9998L6.97975 24.0026L10.4714 26.002Z" fill="#2F37FF"/>
<path d="M6.97975 28.0013V24.0026L10.4714 26.002V30.0007L6.97975 28.0013Z" fill="#00A57E"/>
<path d="M10.4714 21.9998V26.002L13.9595 24.0026V20.0004L10.4714 21.9998Z" fill="#2129DB"/>
<path d="M10.4714 21.9998L13.9595 20.0004L10.4714 18.0011L6.97975 20.0004L10.4714 21.9998Z" fill="#2F37FF"/>
<path d="M6.97975 24.0026V20.0004L10.4714 21.9998V26.002L6.97975 24.0026Z" fill="#00A57E"/>
<path d="M10.4714 18.0011V21.9998L13.9595 20.0004V16.0017L10.4714 18.0011Z" fill="#2129DB"/>
<path d="M10.4714 18.0011L13.9595 16.0017L10.4714 14.0024L6.97975 16.0017L10.4714 18.0011Z" fill="#2F37FF"/>
<path d="M6.97975 20.0004V16.0017L10.4714 18.0011V21.9998L6.97975 20.0004Z" fill="#00A57E"/>
<path d="M6.97975 8.00087V11.9996L10.4714 10.0002V6.00152L6.97975 8.00087Z" fill="#006B7A"/>
<path d="M6.97975 8.00087L10.4714 6.00152L6.97975 3.99869L3.49163 6.00152L6.97975 8.00087Z" fill="#00FFBB"/>
<path d="M3.49163 10.0002V6.00152L6.97975 8.00087V11.9996L3.49163 10.0002Z" fill="#0A1393"/>
<path d="M13.9595 8.00087V11.9996L17.4511 10.0002V6.00152L13.9595 8.00087Z" fill="#2129DB"/>
<path d="M13.9595 8.00087L17.4511 6.00152L13.9595 3.99869L10.4714 6.00152L13.9595 8.00087Z" fill="#00FFBB"/>
<path d="M10.4714 10.0002V6.00152L13.9595 8.00087V11.9996L10.4714 10.0002Z" fill="#00A57E"/>
<path d="M20.9393 8.00087V11.9996L24.4309 10.0002V6.00152L20.9393 8.00087Z" fill="#2129DB"/>
<path d="M20.9393 8.00087L24.4309 6.00152L20.9393 3.99869L17.4511 6.00152L20.9393 8.00087Z" fill="#2F37FF"/>
<path d="M17.4511 10.0002V6.00152L20.9393 8.00087V11.9996L17.4511 10.0002Z" fill="#0A1393"/>
<path d="M17.4511 10.0002V14.0024L20.9393 11.9996V8.00087L17.4511 10.0002Z" fill="#2129DB"/>
<path d="M17.4511 10.0002L20.9393 8.00087L17.4511 6.00152L13.9595 8.00087L17.4511 10.0002Z" fill="#2F37FF"/>
<path d="M13.9595 11.9996V8.00087L17.4511 10.0002V14.0024L13.9595 11.9996Z" fill="#0A1393"/>
<path d="M3.49163 10.0002V14.0024L6.97975 11.9996V8.00087L3.49163 10.0002Z" fill="#2129DB"/>
<path d="M3.49163 10.0002L6.97975 8.00087L3.49163 6.00152L0 8.00087L3.49163 10.0002Z" fill="#2F37FF"/>
<path d="M0 11.9996V8.00087L3.49163 10.0002V14.0024L0 11.9996Z" fill="#0A1393"/>
<path d="M6.97975 11.9996V16.0017L10.4714 14.0024V10.0002L6.97975 11.9996Z" fill="#2129DB"/>
<path d="M6.97975 11.9996L10.4714 10.0002L6.97975 8.00087L3.49163 10.0002L6.97975 11.9996Z" fill="#2F37FF"/>
<path d="M3.49163 14.0024V10.0002L6.97975 11.9996V16.0017L3.49163 14.0024Z" fill="#0A1393"/>
<path d="M13.9595 11.9996V16.0017L17.4511 14.0024V10.0002L13.9595 11.9996Z" fill="#2129DB"/>
<path d="M13.9595 11.9996L17.4511 10.0002L13.9595 8.00087L10.4714 10.0002L13.9595 11.9996Z" fill="#2F37FF"/>
<path d="M10.4714 14.0024V10.0002L13.9595 11.9996V16.0017L10.4714 14.0024Z" fill="#0A1393"/>
<path d="M10.4714 14.0024V18.0011L13.9595 16.0017V11.9996L10.4714 14.0024Z" fill="#2129DB"/>
<path d="M10.4714 14.0024L13.9595 11.9996L10.4714 10.0002L6.97975 11.9996L10.4714 14.0024Z" fill="#2F37FF"/>
<path d="M6.97975 16.0017V11.9996L10.4714 14.0024V18.0011L6.97975 16.0017Z" fill="#0A1393"/>
<path d="M24.4309 18.0011V21.9998L27.9225 20.0004V16.0017L24.4309 18.0011Z" fill="#2129DB"/>
<path d="M24.4309 18.0011L27.9225 16.0017L24.4309 14.0024L20.9393 16.0017L24.4309 18.0011Z" fill="#2F37FF"/>
<path d="M20.9393 20.0004V16.0017L24.4309 18.0011V21.9998L20.9393 20.0004Z" fill="#0A1393"/>
<path d="M24.4309 14.0024V18.0011L27.9225 16.0017V11.9996L24.4309 14.0024Z" fill="#2129DB"/>
<path d="M24.4309 14.0024L27.9225 11.9996L24.4309 10.0002L20.9393 11.9996L24.4309 14.0024Z" fill="#2F37FF"/>
<path d="M20.9393 16.0017V11.9996L24.4309 14.0024V18.0011L20.9393 16.0017Z" fill="#0A1393"/>
<path d="M24.4309 10.0002V14.0024L27.9225 11.9996V8.00087L24.4309 10.0002Z" fill="url(#paint0_linear_7824_3855)"/>
<path d="M24.4309 10.0002L27.9225 8.00087L24.4309 6.00152L20.9393 8.00087L24.4309 10.0002Z" fill="#00FFBB"/>
<path d="M20.9393 11.9996V8.00087L24.4309 10.0002V14.0024L20.9393 11.9996Z" fill="#0A1393"/>
<path d="M20.9393 24.0026V28.0013L24.4309 26.002V21.9998L20.9393 24.0026Z" fill="#2129DB"/>
<path d="M20.9393 24.0026L24.4309 21.9998L20.9393 20.0004L17.4511 21.9998L20.9393 24.0026Z" fill="#2F37FF"/>
<path d="M17.4511 26.002V21.9998L20.9393 24.0026V28.0013L17.4511 26.002Z" fill="#0A1393"/>
<path d="M20.9393 20.0004V24.0026L24.4309 21.9998V18.0011L20.9393 20.0004Z" fill="url(#paint1_linear_7824_3855)"/>
<path d="M20.9393 20.0004L24.4309 18.0011L20.9393 16.0017L17.4511 18.0011L20.9393 20.0004Z" fill="#006B7A"/>
<path d="M17.4511 21.9998V18.0011L20.9393 20.0004V24.0026L17.4511 21.9998Z" fill="#0A1393"/>
<path d="M20.9393 11.9996V16.0017L24.4309 14.0024V10.0002L20.9393 11.9996Z" fill="url(#paint2_linear_7824_3855)"/>
<path d="M20.9393 11.9996L24.4309 10.0002L20.9393 8.00087L17.4511 10.0002L20.9393 11.9996Z" fill="#00FFBB"/>
<path d="M17.4511 14.0024V10.0002L20.9393 11.9996V16.0017L17.4511 14.0024Z" fill="#0A1393"/>
<path d="M17.4511 26.002V30.0007L20.9393 28.0013V24.0026L17.4511 26.002Z" fill="url(#paint3_linear_7824_3855)"/>
<path d="M17.4511 26.002L20.9393 24.0026L17.4511 21.9998L13.9595 24.0026L17.4511 26.002Z" fill="#2F37FF"/>
<path d="M13.9595 28.0013V24.0026L17.4511 26.002V30.0007L13.9595 28.0013Z" fill="#0A1393"/>
<path d="M17.4511 21.9998V26.002L20.9393 24.0026V20.0004L17.4511 21.9998Z" fill="url(#paint4_linear_7824_3855)"/>
<path d="M17.4511 21.9998L20.9393 20.0004L17.4511 18.0011L13.9595 20.0004L17.4511 21.9998Z" fill="#2F37FF"/>
<path d="M13.9595 24.0026V20.0004L17.4511 21.9998V26.002L13.9595 24.0026Z" fill="#0A1393"/>
<path d="M17.4511 18.0011V21.9998L20.9393 20.0004V16.0017L17.4511 18.0011Z" fill="url(#paint5_linear_7824_3855)"/>
<path d="M17.4511 18.0011L20.9393 16.0017L17.4511 14.0024L13.9595 16.0017L17.4511 18.0011Z" fill="#2F37FF"/>
<path d="M13.9595 20.0004V16.0017L17.4511 18.0011V21.9998L13.9595 20.0004Z" fill="#00A57E"/>
<path d="M17.4511 14.0024V18.0011L20.9393 16.0017V11.9996L17.4511 14.0024Z" fill="url(#paint6_linear_7824_3855)"/>
<path d="M17.4511 14.0024L20.9393 11.9996L17.4511 10.0002L13.9595 11.9996L17.4511 14.0024Z" fill="#00FFBB"/>
<path d="M13.9595 16.0017V11.9996L17.4511 14.0024V18.0011L13.9595 16.0017Z" fill="#00A57E"/>
<path d="M13.9595 28.0013V32.0035L17.4511 30.0006V26.002L13.9595 28.0013Z" fill="#2129DB"/>
<path d="M13.9595 28.0013L17.4511 26.002L13.9595 24.0026L10.4714 26.002L13.9595 28.0013Z" fill="#2F37FF"/>
<path d="M10.4714 30.0006V26.002L13.9595 28.0013V32.0035L10.4714 30.0006Z" fill="#0A1393"/>
<path d="M13.9595 24.0026V28.0013L17.4511 26.002V21.9998L13.9595 24.0026Z" fill="#2129DB"/>
<path d="M13.9595 24.0026L17.4511 21.9998L13.9595 20.0004L10.4714 21.9998L13.9595 24.0026Z" fill="#2F37FF"/>
<path d="M10.4714 26.002V21.9998L13.9595 24.0026V28.0013L10.4714 26.002Z" fill="#0A1393"/>
<path d="M13.9595 20.0004V24.0026L17.4511 21.9998V18.0011L13.9595 20.0004Z" fill="#2129DB"/>
<path d="M13.9595 20.0004L17.4511 18.0011L13.9595 16.0017L10.4714 18.0011L13.9595 20.0004Z" fill="#2F37FF"/>
<path d="M10.4714 21.9998V18.0011L13.9595 20.0004V24.0026L10.4714 21.9998Z" fill="#0A1393"/>
</g>
<defs>
<linearGradient id="paint0_linear_7824_3855" x1="26.6136" y1="10.5784" x2="16.7402" y2="20.2201" gradientUnits="userSpaceOnUse">
<stop stop-color="#00FFBB"/>
<stop offset="1" stop-color="#00C1FF"/>
</linearGradient>
<linearGradient id="paint1_linear_7824_3855" x1="29.9578" y1="14.0059" x2="20.0845" y2="23.6476" gradientUnits="userSpaceOnUse">
<stop stop-color="#00FFBB"/>
<stop offset="1" stop-color="#00C1FF"/>
</linearGradient>
<linearGradient id="paint2_linear_7824_3855" x1="25.9293" y1="9.8783" x2="16.056" y2="19.52" gradientUnits="userSpaceOnUse">
<stop stop-color="#00FFBB"/>
<stop offset="1" stop-color="#00C1FF"/>
</linearGradient>
<linearGradient id="paint3_linear_7824_3855" x1="31.2878" y1="15.3678" x2="21.4145" y2="25.0095" gradientUnits="userSpaceOnUse">
<stop stop-color="#00FFBB"/>
<stop offset="1" stop-color="#00C1FF"/>
</linearGradient>
<linearGradient id="paint4_linear_7824_3855" x1="29.2736" y1="13.3057" x2="19.4002" y2="22.9474" gradientUnits="userSpaceOnUse">
<stop stop-color="#00FFBB"/>
<stop offset="1" stop-color="#00C1FF"/>
</linearGradient>
<linearGradient id="paint5_linear_7824_3855" x1="27.2593" y1="11.2402" x2="17.3859" y2="20.8819" gradientUnits="userSpaceOnUse">
<stop stop-color="#00FFBB"/>
<stop offset="1" stop-color="#00C1FF"/>
</linearGradient>
<linearGradient id="paint6_linear_7824_3855" x1="25.245" y1="9.17819" x2="15.3717" y2="18.8199" gradientUnits="userSpaceOnUse">
<stop stop-color="#00FFBB"/>
<stop offset="1" stop-color="#00C1FF"/>
</linearGradient>
<clipPath id="clip0_7824_3855">
<rect width="98.7313" height="18" fill="white" transform="translate(36.2687 7)"/>
</clipPath>
<clipPath id="clip1_7824_3855">
<rect width="27.9225" height="32" fill="white"/>
</clipPath>
</defs>
</svg>
